<?xml version="1.0" encoding="UTF-8" standalone="no"?>
<svg
   width="24"
   height="24"
   viewBox="0 0 24 24"
   fill="currentColor"
   version="1.1"
   id="svg1"
   xml:space="preserve"
   xmlns="http://www.w3.org/2000/svg"
   xmlns:svg="http://www.w3.org/2000/svg"><defs
     id="defs1" /><path
     d="m 23.76,11.452876 v 1.26 l -10.26,6.51 L 13.179438,17.773438 22,12.082876 9,3.8528762 v 9.4599998 c -0.6655318,0 -0.8198865,-0.0087 -1.4813694,-0.0087 L 7.5,2.4828762 l 1.14,-0.63 z"
     id="path1" /><g
     style="fill:#000000"
     id="g2"
     transform="matrix(0.26221458,0,0,0.26221458,-1.7090468,6.5161279)"><g
       id="g1"
       style="fill:#000000"><title
         id="title1">Layer 1</title><rect
         stroke="null"
         transform="rotate(90,32.3606,30)"
         rx="0.5"
         stroke-width="0"
         id="svg_4"
         height="44"
         width="4.5"
         y="8"
         x="30.11055"
         fill="#424242"
         style="fill:#000000" /><rect
         stroke="null"
         transform="rotate(90,32.3606,38)"
         rx="0.5"
         stroke-width="0"
         id="svg_8"
         height="36"
         width="4.5"
         y="20"
         x="30.11055"
         fill="#424242"
         style="fill:#000000" /><rect
         stroke="null"
         transform="rotate(12,12.25,42)"
         rx="0.5"
         stroke-width="0"
         id="svg_9"
         height="26"
         width="4.5"
         y="29"
         x="10"
         fill="#424242"
         style="fill:#000000" /><rect
         stroke="null"
         transform="rotate(-12,52.25,42.0894)"
         rx="0.5"
         stroke-width="0"
         id="svg_10"
         height="26"
         width="4.5"
         y="29.089451"
         x="50"
         fill="#424242"
         style="fill:#000000" /></g></g></svg>
