<?xml version="1.0" encoding="UTF-8" standalone="no"?>
<svg
   width="80"
   height="80"
   viewBox="0 0 80 80"
   version="1.1"
   id="svg1"
   xmlns="http://www.w3.org/2000/svg"
   xmlns:svg="http://www.w3.org/2000/svg">
  <defs
     id="defs1" />
  <title
     id="title1">Icon-Architecture/64/Arch_Amazon-EventBridge_64</title>
  <g
     id="Icon-Architecture/64/Arch_Amazon-EventBridge_64"
     stroke="none"
     stroke-width="1"
     fill="none"
     fill-rule="evenodd">
    <path
       d="m 55.174153,67.857136 c -2.381049,0 -4.319044,-1.878216 -4.319044,-4.188216 0,-2.31 1.937995,-4.188212 4.319044,-4.188212 2.38107,0 4.319065,1.878212 4.319065,4.188212 0,2.31 -1.937995,4.188216 -4.319065,4.188216 z M 45.70295,49.64285 H 34.219706 l -5.742168,-9.642854 5.742168,-9.642855 H 45.70295 l 5.74106,9.642855 z M 26.245631,20.519283 c -2.38105,0 -4.319045,-1.878211 -4.319045,-4.18821 0,-2.31 1.937995,-4.188221 4.319045,-4.188221 2.382179,0 4.320178,1.878221 4.320178,4.188221 0,2.309999 -1.937999,4.18821 -4.320178,4.18821 z m 28.928522,36.818566 c -0.819835,0 -1.602102,0.153216 -2.325809,0.422144 l -4.692514,-7.677855 -0.2475,0.1425 5.768695,-9.688927 c 0.19667,-0.332144 0.19667,-0.739287 0,-1.071431 L 47.29732,28.749997 c -0.197784,-0.332144 -0.5624,-0.535716 -0.95685,-0.535716 H 34.731278 l 0.04531,-0.02572 -4.302484,-7.041426 c 1.405414,-1.161424 2.301501,-2.888566 2.301501,-4.816064 C 32.7756,12.840352 29.846502,10 26.24563,10 c -3.599761,0 -6.528859,2.840352 -6.528859,6.331073 0,3.490709 2.929098,6.331069 6.528859,6.331069 0.820937,0 1.603204,-0.153216 2.32692,-0.422144 l 4.016319,6.571071 -6.344344,10.653211 c -0.196668,0.332144 -0.196668,0.739287 0,1.071431 l 6.380799,10.714283 c 0.197783,0.332144 0.5624,0.535717 0.956853,0.535717 H 46.34047 c 0.0917,0 0.1812,-0.01392 0.267385,-0.03428 l 4.338942,7.101426 c -1.406527,1.161429 -2.301499,2.888572 -2.301499,4.816072 0,3.490715 2.927985,6.331071 6.528852,6.331071 3.60088,0 6.528864,-2.840356 6.528864,-6.331071 0,-3.490711 -2.927984,-6.331071 -6.528864,-6.331071 z M 61.76047,31.539997 c -2.381051,0 -4.317954,-1.878216 -4.317954,-4.188215 0,-2.31 1.936903,-4.188212 4.317954,-4.188212 2.381067,0 4.319063,1.878212 4.319063,4.188212 0,2.309999 -1.937996,4.188215 -4.319063,4.188215 z m 8.091193,7.924283 -4.194193,-7.04464 c 1.594368,-1.156071 2.631866,-2.994643 2.631866,-5.067858 0,-3.490712 -2.927984,-6.331067 -6.528866,-6.331067 -0.91596,0 -1.788835,0.185356 -2.581041,0.518567 L 55.75975,15.795351 C 55.56308,15.464277 55.19737,15.259647 54.802917,15.259647 H 41.105458 v 2.142852 H 54.16538 l 3.163336,5.314283 c -1.286106,1.157144 -2.096003,2.803931 -2.096003,4.635 0,3.490715 2.927997,6.331071 6.527757,6.331071 0.67068,0 1.31926,-0.09964 1.929168,-0.282856 l 3.930132,6.599999 -5.517883,9.265715 1.913685,1.071427 5.836091,-9.801427 c 0.197782,-0.332144 0.197782,-0.739287 0,-1.071431 z M 19.143332,56.336065 c -2.382165,0 -4.320163,-1.879287 -4.320163,-4.188215 0,-2.31 1.937998,-4.188211 4.320163,-4.188211 2.381068,0 4.319064,1.878211 4.319064,4.188211 0,2.308928 -1.937996,4.188215 -4.319064,4.188215 z m 3.608615,1.083212 c 1.757884,-1.135712 2.920252,-3.073927 2.920252,-5.271427 0,-3.490712 -2.929097,-6.331071 -6.528867,-6.331071 -1.043024,0 -2.025282,0.244288 -2.900365,0.667499 L 12.381338,39.999996 18.779825,29.254641 16.865027,28.183213 10.148333,39.46428 c -0.1977774,0.332144 -0.1977774,0.739287 0,1.071431 l 4.30138,7.221428 c -1.134734,1.139999 -1.836345,2.686071 -1.836345,4.390711 0,3.490715 2.929093,6.331071 6.529964,6.331071 0.542502,0 1.067332,-0.0718 1.572278,-0.193928 l 3.52464,5.919643 c 0.197763,0.331072 0.56238,0.535712 0.956833,0.535712 H 38.895655 V 62.597493 H 25.83462 Z"
       id="Amazon-EventBridge_Icon_64_Squid"
       fill="#FFFFFF"
       style="fill:#e7157b;fill-opacity:1;stroke-width:1.09108" />
  </g>
</svg>
